
<svg xmlns="http://www.w3.org/2000/svg" viewBox="0 0 900 900">
  <g>
    <path stroke-width="0" d="m184.33,630.57l-143.36,143.36c-15.12,15.12-40.97,4.41-40.97-16.97V150C0,67.16,67.16,0,150,0h606.96c21.38,0,32.09,25.85,16.97,40.97l-108.78,108.78c-6.18,6.18-15.22,8.5-23.62,6.08-13.19-3.79-27.12-5.83-41.53-5.83h-300c-82.84,0-150,67.16-150,150v145.82c-.09,3-.15,6.01-.15,9.04,0,53.35,13.93,103.44,38.35,146.85,5.3,9.43,3.78,21.22-3.87,28.87Z" fill="currentColor" />
    <path stroke-width="0" d="m750.15,234.46c-6.19,6.19-8.51,15.26-6.07,23.67,3.86,13.29,5.92,27.34,5.92,41.87v158h-.19c-1.43,138.54-96.75,254.57-225.36,287.49-11.93,3.05-24.21,4.51-36.52,4.51h-76.13c-12.42,0-24.8-1.49-36.82-4.58-27.75-7.13-53.96-18.13-77.99-32.39-9.4-5.58-21.39-4.01-29.12,3.72l-142.28,142.28c-15.12,15.12-4.41,40.97,16.97,40.97h607.45c82.84,0,150-67.16,150-150V142.55c0-21.38-25.85-32.09-40.97-16.97l-108.88,108.88Z" fill="currentColor" />
  </g>
</svg>